<svg width="410" height="404" viewBox="0 0 410 404" fill="none" xmlns="http://www.w3.org/2000/svg">
  <rect width="410" height="404" rx="40" fill="#1C1512"/>
  <g filter="url(#glow)">
    <path d="M205 70C173 70 147 96 147 128C147 139 150 150 156 160C135 169 120 189 120 213C120 236 134 256 154 265C140 276 132 293 132 311C132 345 158 372 191 372H219C252 372 278 345 278 311C278 293 270 276 256 265C276 256 290 236 290 213C290 189 275 169 254 160C260 150 263 139 263 128C263 96 237 70 205 70Z" fill="#BA8D68"/>
    <path d="M205 90C188 90 174 104 174 121C174 130 177 139 182 147C156 156 139 179 139 206C139 230 154 250 175 256C161 266 153 282 153 301C153 327 174 348 200 348H210C236 348 257 327 257 301C257 282 249 265 235 256C256 250 271 230 271 206C271 179 254 156 228 147C233 139 236 130 236 121C236 104 222 90 205 90Z" fill="#E0B998"/>
    <path d="M206 203L206 324" stroke="#1C1512" stroke-width="18" stroke-linecap="round"/>
    <path d="M206 248L238 216" stroke="#1C1512" stroke-width="18" stroke-linecap="round"/>
    <path d="M206 274L176 244" stroke="#1C1512" stroke-width="18" stroke-linecap="round"/>
  </g>
  <defs>
    <filter id="glow" x="90" y="40" width="230" height="372" filterUnits="userSpaceOnUse" color-interpolation-filters="sRGB">
      <feGaussianBlur stdDeviation="8" result="blur"/>
      <feComposite in="SourceGraphic" in2="blur" operator="over"/>
    </filter>
  </defs>
</svg>