<svg width="128" height="128" viewBox="0 0 128 128" fill="none" xmlns="http://www.w3.org/2000/svg">
  <rect width="128" height="128" rx="20" fill="#1C1512"/>
  <g filter="url(#glow)">
    <path d="M64 18C53 18 44 27 44 38C44 41 45 45 47 48C40 51 36 57 36 64C36 71 40 77 46 80C42 83 40 88 40 94C40 106 49 116 61 116H67C79 116 88 106 88 94C88 88 86 83 82 80C88 77 92 71 92 64C92 57 88 51 81 48C83 45 84 41 84 38C84 27 75 18 64 18Z" fill="#BA8D68"/>
    <path d="M64 24C58 24 53 29 53 36C53 39 54 42 56 45C47 48 42 56 42 65C42 72 47 79 55 81C50 85 48 91 48 98C48 107 55 114 64 114H66C75 114 82 107 82 98C82 91 80 85 75 81C83 79 88 72 88 65C88 56 83 48 74 45C76 42 77 39 77 36C77 29 72 24 66 24H64Z" fill="#E0B998"/>
    <path d="M64 64V104" stroke="#1C1512" stroke-width="8" stroke-linecap="round"/>
    <path d="M64 78L78 64" stroke="#1C1512" stroke-width="8" stroke-linecap="round"/>
    <path d="M64 86L52 74" stroke="#1C1512" stroke-width="8" stroke-linecap="round"/>
  </g>
  <defs>
    <filter id="glow" x="24" y="8" width="80" height="116" filterUnits="userSpaceOnUse" color-interpolation-filters="sRGB">
      <feGaussianBlur stdDeviation="4" result="blur"/>
      <feComposite in="SourceGraphic" in2="blur" operator="over"/>
    </filter>
  </defs>
</svg>